<svg id="visual" viewBox="0 0 960 540" width="960" height="540" xmlns="http://www.w3.org/2000/svg" xmlns:xlink="http://www.w3.org/1999/xlink" version="1.1"><path d="M0 109L14.5 113.5C29 118 58 127 87.2 123.3C116.3 119.7 145.7 103.3 174.8 107.8C204 112.3 233 137.7 262 154C291 170.3 320 177.7 349 192C378 206.3 407 227.7 436.2 242.8C465.3 258 494.7 267 523.8 245.5C553 224 582 172 611 158.5C640 145 669 170 698 179.8C727 189.7 756 184.3 785.2 173.7C814.3 163 843.7 147 872.8 141.7C902 136.3 931 141.7 945.5 144.3L960 147L960 0L945.5 0C931 0 902 0 872.8 0C843.7 0 814.3 0 785.2 0C756 0 727 0 698 0C669 0 640 0 611 0C582 0 553 0 523.8 0C494.7 0 465.3 0 436.2 0C407 0 378 0 349 0C320 0 291 0 262 0C233 0 204 0 174.8 0C145.7 0 116.3 0 87.2 0C58 0 29 0 14.5 0L0 0Z" fill="#714755"></path><path d="M0 163L14.5 171.2C29 179.3 58 195.7 87.2 201C116.3 206.3 145.7 200.7 174.8 209.7C204 218.7 233 242.3 262 256.8C291 271.3 320 276.7 349 284.7C378 292.7 407 303.3 436.2 308.7C465.3 314 494.7 314 523.8 300.5C553 287 582 260 611 252.8C640 245.7 669 258.3 698 259.3C727 260.3 756 249.7 785.2 240.7C814.3 231.7 843.7 224.3 872.8 217C902 209.7 931 202.3 945.5 198.7L960 195L960 145L945.5 142.3C931 139.7 902 134.3 872.8 139.7C843.7 145 814.3 161 785.2 171.7C756 182.3 727 187.7 698 177.8C669 168 640 143 611 156.5C582 170 553 222 523.8 243.5C494.7 265 465.3 256 436.2 240.8C407 225.7 378 204.3 349 190C320 175.7 291 168.3 262 152C233 135.7 204 110.3 174.8 105.8C145.7 101.3 116.3 117.7 87.2 121.3C58 125 29 116 14.5 111.5L0 107Z" fill="#45242f"></path><path d="M0 411L14.5 405.7C29 400.3 58 389.7 87.2 389.7C116.3 389.7 145.7 400.3 174.8 411.2C204 422 233 433 262 424C291 415 320 386 349 379.7C378 373.3 407 389.7 436.2 398.7C465.3 407.7 494.7 409.3 523.8 405.7C553 402 582 393 611 379.5C640 366 669 348 698 359.8C727 371.7 756 413.3 785.2 416.2C814.3 419 843.7 383 872.8 370.3C902 357.7 931 368.3 945.5 373.7L960 379L960 193L945.5 196.7C931 200.3 902 207.7 872.8 215C843.7 222.3 814.3 229.7 785.2 238.7C756 247.7 727 258.3 698 257.3C669 256.3 640 243.7 611 250.8C582 258 553 285 523.8 298.5C494.7 312 465.3 312 436.2 306.7C407 301.3 378 290.7 349 282.7C320 274.7 291 269.3 262 254.8C233 240.3 204 216.7 174.8 207.7C145.7 198.7 116.3 204.3 87.2 199C58 193.7 29 177.3 14.5 169.2L0 161Z" fill="#371d26"></path><path d="M0 498L14.5 494.3C29 490.7 58 483.3 87.2 481.5C116.3 479.7 145.7 483.3 174.8 485.2C204 487 233 487 262 482.5C291 478 320 469 349 462.7C378 456.3 407 452.7 436.2 458C465.3 463.3 494.7 477.7 523.8 487.7C553 497.7 582 503.3 611 499.8C640 496.3 669 483.7 698 483.7C727 483.7 756 496.3 785.2 492.7C814.3 489 843.7 469 872.8 459C902 449 931 449 945.5 449L960 449L960 377L945.5 371.7C931 366.3 902 355.7 872.8 368.3C843.7 381 814.3 417 785.2 414.2C756 411.3 727 369.7 698 357.8C669 346 640 364 611 377.5C582 391 553 400 523.8 403.7C494.7 407.3 465.3 405.7 436.2 396.7C407 387.7 378 371.3 349 377.7C320 384 291 413 262 422C233 431 204 420 174.8 409.2C145.7 398.3 116.3 387.7 87.2 387.7C58 387.7 29 398.3 14.5 403.7L0 409Z" fill="#45242f"></path><path d="M0 541L14.5 541C29 541 58 541 87.2 541C116.3 541 145.7 541 174.8 541C204 541 233 541 262 541C291 541 320 541 349 541C378 541 407 541 436.2 541C465.3 541 494.7 541 523.8 541C553 541 582 541 611 541C640 541 669 541 698 541C727 541 756 541 785.2 541C814.3 541 843.7 541 872.8 541C902 541 931 541 945.5 541L960 541L960 447L945.5 447C931 447 902 447 872.8 457C843.7 467 814.3 487 785.2 490.7C756 494.3 727 481.7 698 481.7C669 481.7 640 494.3 611 497.8C582 501.3 553 495.7 523.8 485.7C494.7 475.7 465.3 461.3 436.2 456C407 450.7 378 454.3 349 460.7C320 467 291 476 262 480.5C233 485 204 485 174.8 483.2C145.7 481.3 116.3 477.7 87.2 479.5C58 481.3 29 488.7 14.5 492.3L0 496Z" fill="#714755"></path></svg>