<svg id="visual" viewBox="0 0 960 540" width="960" height="540" xmlns="http://www.w3.org/2000/svg" xmlns:xlink="http://www.w3.org/1999/xlink" version="1.1"><rect x="0" y="0" width="960" height="540" fill="#001220"></rect><defs><linearGradient id="grad1_0" x1="43.8%" y1="0%" x2="100%" y2="100%"><stop offset="14.444444444444446%" stop-color="#001220" stop-opacity="1"></stop><stop offset="85.55555555555554%" stop-color="#001220" stop-opacity="1"></stop></linearGradient></defs><defs><linearGradient id="grad2_0" x1="0%" y1="0%" x2="56.3%" y2="100%"><stop offset="14.444444444444446%" stop-color="#001220" stop-opacity="1"></stop><stop offset="85.55555555555554%" stop-color="#001220" stop-opacity="1"></stop></linearGradient></defs><g transform="translate(960, 0)"><path d="M0 486C-64.2 476.3 -128.3 466.5 -182.2 439.8C-236 413 -279.5 369.2 -326 326C-372.4 282.8 -421.8 240.2 -449 186C-476.2 131.8 -481.1 65.9 -486 0L0 0Z" fill="#FBAE3C"></path></g><g transform="translate(0, 540)"><path d="M0 -486C44.2 -432.9 88.5 -379.8 150.8 -364C213.1 -348.2 293.5 -369.6 343.7 -343.7C393.8 -317.7 413.7 -244.3 432.4 -179.1C451.1 -113.9 468.5 -57 486 0L0 0Z" fill="#FBAE3C"></path></g></svg>