<svg id="visual" viewBox="0 0 960 540" width="960" height="540" xmlns="http://www.w3.org/2000/svg" xmlns:xlink="http://www.w3.org/1999/xlink" version="1.1"><rect x="0" y="0" width="960" height="540" fill="#4a2632"></rect><g transform="translate(460.5775914289318 302.83786778553707)"><path d="M89.6 -139.1C130.5 -113.1 188.1 -112.6 219.6 -87.4C251.2 -62.2 256.7 -12.2 241 28.3C225.3 68.8 188.2 99.9 151.9 118.7C115.5 137.5 79.9 144.1 44.8 156C9.7 167.9 -24.9 185.2 -49.8 175.2C-74.6 165.3 -89.8 128.2 -117.9 99.9C-145.9 71.6 -186.8 52.2 -202.5 21.8C-218.2 -8.5 -208.7 -49.7 -195 -92.9C-181.3 -136.1 -163.4 -181.2 -130.2 -210.7C-97 -240.2 -48.5 -254.1 -12.1 -235.3C24.3 -216.5 48.7 -165.1 89.6 -139.1" fill="#FEB562"></path></g></svg>