<svg id="visual" viewBox="0 0 900 600" width="900" height="600" xmlns="http://www.w3.org/2000/svg" xmlns:xlink="http://www.w3.org/1999/xlink" version="1.1"><path d="M0 360L21.5 367.7C43 375.3 86 390.7 128.8 390.5C171.7 390.3 214.3 374.7 257.2 381.8C300 389 343 419 385.8 432.3C428.7 445.7 471.3 442.3 514.2 442C557 441.7 600 444.3 642.8 436.2C685.7 428 728.3 409 771.2 403.7C814 398.3 857 406.7 878.5 410.8L900 415L900 601L878.5 601C857 601 814 601 771.2 601C728.3 601 685.7 601 642.8 601C600 601 557 601 514.2 601C471.3 601 428.7 601 385.8 601C343 601 300 601 257.2 601C214.3 601 171.7 601 128.8 601C86 601 43 601 21.5 601L0 601Z" fill="#feb561"></path><path d="M0 445L21.5 446.8C43 448.7 86 452.3 128.8 455.8C171.7 459.3 214.3 462.7 257.2 461.2C300 459.7 343 453.3 385.8 442.8C428.7 432.3 471.3 417.7 514.2 423C557 428.3 600 453.7 642.8 462.3C685.7 471 728.3 463 771.2 458.3C814 453.7 857 452.3 878.5 451.7L900 451L900 601L878.5 601C857 601 814 601 771.2 601C728.3 601 685.7 601 642.8 601C600 601 557 601 514.2 601C471.3 601 428.7 601 385.8 601C343 601 300 601 257.2 601C214.3 601 171.7 601 128.8 601C86 601 43 601 21.5 601L0 601Z" fill="#f89d55"></path><path d="M0 438L21.5 448.5C43 459 86 480 128.8 481.5C171.7 483 214.3 465 257.2 459.2C300 453.3 343 459.7 385.8 467.2C428.7 474.7 471.3 483.3 514.2 481.5C557 479.7 600 467.3 642.8 468.5C685.7 469.7 728.3 484.3 771.2 493.3C814 502.3 857 505.7 878.5 507.3L900 509L900 601L878.5 601C857 601 814 601 771.2 601C728.3 601 685.7 601 642.8 601C600 601 557 601 514.2 601C471.3 601 428.7 601 385.8 601C343 601 300 601 257.2 601C214.3 601 171.7 601 128.8 601C86 601 43 601 21.5 601L0 601Z" fill="#f0844d"></path><path d="M0 535L21.5 531.7C43 528.3 86 521.7 128.8 516C171.7 510.3 214.3 505.7 257.2 506.7C300 507.7 343 514.3 385.8 512.3C428.7 510.3 471.3 499.7 514.2 499.3C557 499 600 509 642.8 510.3C685.7 511.7 728.3 504.3 771.2 497.8C814 491.3 857 485.7 878.5 482.8L900 480L900 601L878.5 601C857 601 814 601 771.2 601C728.3 601 685.7 601 642.8 601C600 601 557 601 514.2 601C471.3 601 428.7 601 385.8 601C343 601 300 601 257.2 601C214.3 601 171.7 601 128.8 601C86 601 43 601 21.5 601L0 601Z" fill="#e66b48"></path><path d="M0 530L21.5 533.8C43 537.7 86 545.3 128.8 545C171.7 544.7 214.3 536.3 257.2 536.8C300 537.3 343 546.7 385.8 550.5C428.7 554.3 471.3 552.7 514.2 549.2C557 545.7 600 540.3 642.8 541.5C685.7 542.7 728.3 550.3 771.2 555.3C814 560.3 857 562.7 878.5 563.8L900 565L900 601L878.5 601C857 601 814 601 771.2 601C728.3 601 685.7 601 642.8 601C600 601 557 601 514.2 601C471.3 601 428.7 601 385.8 601C343 601 300 601 257.2 601C214.3 601 171.7 601 128.8 601C86 601 43 601 21.5 601L0 601Z" fill="#db5046"></path></svg>